<svg width="512" height="512" viewBox="0 0 512 512" xmlns="http://www.w3.org/2000/svg">
  <!-- Fondo circular con gradiente verde Duolingo -->
  <defs>
    <linearGradient id="greenGradient" x1="0%" y1="0%" x2="100%" y2="100%">
      <stop offset="0%" style="stop-color:#58CC02;stop-opacity:1" />
      <stop offset="100%" style="stop-color:#3DA700;stop-opacity:1" />
    </linearGradient>
    <linearGradient id="blueGradient" x1="0%" y1="0%" x2="100%" y2="100%">
      <stop offset="0%" style="stop-color:#1CB0F6;stop-opacity:1" />
      <stop offset="100%" style="stop-color:#0A87D1;stop-opacity:1" />
    </linearGradient>
  </defs>

  <!-- Fondo circular verde -->
  <circle cx="256" cy="256" r="240" fill="url(#greenGradient)"/>

  <!-- Libro abierto (símbolo educativo) -->
  <g transform="translate(256, 256)">
    <!-- Libro base -->
    <path d="M -120 -40 L -120 100 L 0 80 L 120 100 L 120 -40 L 0 -20 Z"
          fill="#FFFFFF"
          stroke="#2D3748"
          stroke-width="8"
          stroke-linejoin="round"/>

    <!-- Línea central del libro -->
    <line x1="0" y1="-20" x2="0" y2="80"
          stroke="#2D3748"
          stroke-width="6"/>

    <!-- Detalles de páginas (lado izquierdo) -->
    <line x1="-80" y1="-10" x2="-40" y2="-10"
          stroke="#58CC02"
          stroke-width="6"
          stroke-linecap="round"/>
    <line x1="-80" y1="10" x2="-40" y2="10"
          stroke="#58CC02"
          stroke-width="6"
          stroke-linecap="round"/>
    <line x1="-80" y1="30" x2="-40" y2="30"
          stroke="#58CC02"
          stroke-width="6"
          stroke-linecap="round"/>

    <!-- Detalles de páginas (lado derecho) -->
    <line x1="40" y1="-10" x2="80" y2="-10"
          stroke="#1CB0F6"
          stroke-width="6"
          stroke-linecap="round"/>
    <line x1="40" y1="10" x2="80" y2="10"
          stroke="#1CB0F6"
          stroke-width="6"
          stroke-linecap="round"/>
    <line x1="40" y1="30" x2="80" y2="30"
          stroke="#1CB0F6"
          stroke-width="6"
          stroke-linecap="round"/>

    <!-- Estrella de éxito (arriba del libro) -->
    <g transform="translate(0, -100)">
      <path d="M 0,-30 L 7,-10 L 28,-10 L 12,2 L 18,22 L 0,10 L -18,22 L -12,2 L -28,-10 L -7,-10 Z"
            fill="#FFBF00"
            stroke="#FF9600"
            stroke-width="4"/>
    </g>
  </g>

  <!-- Sombra inferior para efecto Duolingo -->
  <ellipse cx="256" cy="480" rx="200" ry="20" fill="#2D3748" opacity="0.2"/>
</svg>
